<?xml version="1.0" encoding="UTF-8"?>
<svg id="_Слой_1" xmlns="http://www.w3.org/2000/svg" version="1.1" viewBox="0 0 160 160">
  <!-- Generator: Adobe Illustrator 30.1.0, SVG Export Plug-In . SVG Version: 2.1.1 Build 136)  -->
  <defs>
    <style>
      .st0, .st1 {
        isolation: isolate;
      }

      .st1 {
        font-family: Copperplate, Copperplate;
        font-size: 28.89px;
      }

      .st2 {
        fill: #42210b;
      }
    </style>
  </defs>
  <g class="st0">
    <text class="st1" transform="translate(32.62 106.89)"><tspan x="0" y="0">ДРЕВО</tspan></text>
  </g>
  <g id="LEZKYf.tif">
    <g>
      <path class="st2" d="M86.25,78.67c0-.24-.28-.66-.45-.65s-.48.36-.48.54l-.1,6.42c-3.71.18-5.22-1.89-8.66-2.75v-4.72c0-.2-.26-.6-.44-.62s-.48.41-.49.6l-.18,4.56c-1.2-.3-2.33-.53-3.45-1.13-1.45-.79-3.08-2.15-3.48-3.85-.32-1.37-.09-2.88-.07-4.33l.06-4.6c0-.17-.33-.48-.46-.5-.16-.03-.39.38-.4.56l-.25,7.03c-2.71-2.57-1.98-4.94-1.86-8.24l.19-5.07c.05-1.43.19-2.76.83-4.06,1.14-2.33-.1-3.99,2.08-5.65.7-.53,1.4-1.2,1.93-1.89,2.31-3.02,5.13-1.8,8.08-3.06,1.07-.45,1.92-1.2,2.93-1.78,2-1.14,4.47-1.03,6.6-.18,1.54.62,2.98,1.07,4.61,1.42s3.14.96,4.37,2.03c.91.79,1.42,1.97,1.8,3.12,1.44,4.4,4.44,3.18,4.73,9.23l.34,7.29c.06,1.24-.22,2.41-1.26,3.13l-.26-6.72c0-.2-.28-.53-.43-.57s-.5.4-.49.58l.34,9.04c.1,2.67-1.14,4.93-3.6,5.98-.1-.59-.14-1.12-.17-1.78l-.16-4.28c0-.19-.36-.49-.5-.49-.18,0-.4.39-.39.6l.09,6.63-3.37,1.65-.27-6c0-.15-.5-.33-.57-.23s-.3.42-.3.61l.05,6.41c-1.94,1.52-4.11,1.9-6.45,2.04l-.04-6.3v-.02ZM80.33,74.3c1.86.81,3.16,1.34,4.82,1.41,1.98.08,3.77-.47,5.28-1.7,2.71-2.2,4.94-1.98,7.08-3.88,1.12-1,1.82-2.43,1.88-3.94s.26-2.99.67-4.46c.52-1.85.04-3.62-1.22-5.05-1.09-1.24-2-2.49-2.77-3.96-1.79-3.44-3.95-3.53-7.33-4.72-2.17-.76-4.41-.76-6.49.3-5.15,2.65-6.72,1.06-10.59,4.35-2.73,2.32-.9,3.42-2.37,7.87-.41,1.25-.48,2.51-.14,3.75l1.07,3.9c.73,2.64,3.12,4.31,5.72,4.82,1.16.23,2.13.47,3.32.82l.03,5.88c0,.18.32.57.47.5s.4-.41.41-.57l.15-5.33h0ZM70.92,76.3l.05-2.75c0-.17-.35-.53-.5-.53s-.45.33-.45.5l-.03,2.82c0,.18.33.57.48.52s.46-.4.46-.55h-.01Z"/>
      <path class="st2" d="M92.47,70.41c-3.19,1.34-5.1,4.43-10.71,2.46-1.64-.58-3.17-1.13-4.83-1.58-2.6-.72-4.44-2.57-5.27-5.11-1.19-3.64.04-4.77.16-8.37.05-1.45.42-2.68,1.47-3.71,2.61-2.56,5.47-2.18,9.34-3.79,2.41-1,4.87-.93,7.27.05,4.26,1.75,3.09,3.04,6.62,6.5,2.45,2.4,1.2,4.97.83,8.57-.3,2.85-2.52,4.01-4.86,4.99h-.02ZM88.06,70.44l4.08-2.24c3.11-1.71,3.08-3.27,3.49-6.73.16-1.38-.36-2.61-1.17-3.66l-2.47-3.21c-1.83-2.37-4.99-3.39-7.93-2.64-2.24.58-4.33,1.15-6.49,1.91-1.48.52-3.06,1.77-3.4,3.31-.4,1.82-.64,3.54-.85,5.37-.35,3.07,1.52,5.9,4.39,6.9,1.65.58,3.19,1.09,4.85,1.57,1.82.52,3.82.36,5.51-.57h-.01Z"/>
      <path class="st2" d="M88.22,68.42c-1.57,1.1-3.33,1.54-5.18,1.14-1.73-.37-3.37-.93-4.99-1.71-2.17-1.04-3.59-3.38-3.19-5.82.25-1.51.53-2.99.99-4.45.49-1.53,2.16-2.48,3.61-2.92,1.64-.49,3.14-.88,4.82-1.23,2.14-.45,4.57.12,5.99,1.78l2.12,2.47c1.29,1.51,1.78,3.2,1.47,5.16-.53,3.42-2.69,3.49-5.66,5.57h.02ZM87.1,67.04c.96-.66,1.96-1.23,2.98-1.77,2.39-1.26,2.5-4.3,1.54-5.71-1.69-2.48-3.37-4.92-6.83-4.54-1.72.19-3.4.59-4.96,1.22-1.33.54-2.24,1.57-2.6,2.92l-.56,2.15c-.55,2.08.35,4.2,2.29,5.2,2.63,1.34,5.57,2.28,8.14.52h0Z"/>
    </g>
  </g>
</svg>